<?xml version="1.0" standalone="no"?>
<!DOCTYPE svg PUBLIC "-//W3C//DTD SVG 20010904//EN"
 "http://www.w3.org/TR/2001/REC-SVG-20010904/DTD/svg10.dtd">
<svg version="1.0" xmlns="http://www.w3.org/2000/svg"
 width="519.000000pt" height="519.000000pt" viewBox="0 0 519.000000 519.000000"
 preserveAspectRatio="xMidYMid meet">

<g transform="translate(0.000000,519.000000) scale(0.100000,-0.100000)"
fill="#000000" stroke="none">
<path d="M810 3060 l0 -1830 1825 0 1825 0 0 1830 0 1830 -1825 0 -1825 0 0
-1830z m680 1450 c48 -24 87 -64 108 -110 15 -32 17 -139 22 -1122 l5 -1086
25 -27 c52 -57 8 -55 1065 -55 536 0 975 2 975 4 0 6 -89 252 -175 486 -42
113 -95 259 -119 325 -24 66 -72 185 -106 265 -96 224 -113 282 -107 365 2 39
12 92 21 118 10 26 90 170 180 320 90 150 189 316 220 369 76 131 120 163 221
163 61 0 76 -4 115 -30 55 -36 100 -118 100 -179 -1 -56 -13 -82 -207 -406
-93 -157 -182 -305 -196 -330 l-25 -45 65 -175 c35 -96 84 -229 108 -295 25
-66 69 -187 100 -270 31 -82 76 -204 100 -270 24 -66 60 -163 80 -215 20 -52
53 -147 75 -210 21 -63 61 -180 89 -258 28 -79 51 -146 51 -148 0 -2 -624 -4
-1387 -4 l-1388 0 -63 30 c-120 57 -196 141 -233 259 -18 61 -19 102 -19 1222
0 1270 -3 1197 58 1263 60 64 167 84 242 46z m721 -7 c57 -30 92 -71 109 -132
6 -23 10 -321 10 -806 0 -713 1 -773 18 -805 45 -90 181 -97 238 -13 18 27 19
63 24 828 l5 800 28 47 c35 60 100 100 171 106 87 7 166 -40 205 -123 21 -44
21 -51 21 -848 0 -780 -1 -804 -21 -877 -69 -253 -286 -421 -544 -423 -187 -1
-350 83 -475 245 -32 41 -78 152 -89 215 -16 83 -15 1619 1 1664 44 128 178
183 299 122z"/>
<path d="M3483 992 c-24 -9 -43 -21 -43 -27 0 -17 51 -62 83 -74 16 -6 52 -11
82 -11 30 0 66 5 82 11 32 12 83 57 83 74 0 6 -22 18 -48 27 -48 15 -49 15
-70 -8 -27 -31 -64 -30 -98 1 -15 14 -27 24 -28 24 -1 -1 -20 -9 -43 -17z"/>
<path d="M2792 841 c-63 -22 -119 -73 -153 -139 -21 -40 -24 -61 -24 -147 0
-85 3 -107 23 -145 33 -64 86 -115 146 -141 73 -32 209 -32 284 1 66 29 131
99 156 171 59 162 -26 359 -173 403 -73 22 -192 20 -259 -3z m187 -136 c16 -8
40 -28 55 -45 23 -28 26 -40 26 -107 l0 -76 -44 -43 c-38 -38 -49 -44 -87 -44
-84 0 -143 69 -142 166 0 66 25 115 71 142 44 25 82 28 121 7z"/>
<path d="M900 655 c0 -234 -6 -255 -77 -255 l-33 0 0 -70 c0 -67 1 -70 26 -76
34 -9 129 3 162 20 36 19 68 54 81 89 6 16 11 98 11 183 l0 154 55 0 55 0 2
-217 3 -218 85 0 85 0 0 290 0 290 -227 3 -228 2 0 -195z"/>
<path d="M1410 844 c0 -4 48 -100 107 -214 l107 -207 -37 -77 c-20 -43 -37
-80 -37 -82 0 -3 41 -3 92 -2 l91 3 129 284 c70 156 128 288 128 293 0 5 -41
7 -92 6 l-93 -3 -36 -95 c-55 -146 -47 -145 -108 -15 l-54 115 -99 0 c-54 0
-98 -3 -98 -6z"/>
<path d="M2040 555 l0 -295 85 0 84 0 3 117 3 117 79 -117 79 -117 103 0 c57
0 104 3 104 6 0 4 -49 72 -110 152 -69 91 -107 149 -101 156 4 6 51 66 105
133 53 67 96 127 96 132 0 7 -34 11 -94 11 l-94 0 -83 -112 -84 -113 -3 113
-3 112 -84 0 -85 0 0 -295z"/>
<path d="M3320 555 l0 -295 88 0 89 0 62 101 c35 55 83 130 107 167 l44 67 0
-168 0 -168 83 3 c45 2 81 6 80 11 -2 4 -3 135 -3 292 l0 286 -82 -3 -83 -3
-50 -75 c-27 -42 -75 -114 -105 -160 l-55 -85 -5 160 -5 160 -82 3 -83 3 0
-296z"/>
<path d="M4047 844 c-4 -4 -7 -93 -7 -198 0 -229 -4 -240 -73 -244 l-47 -3 0
-64 c0 -80 14 -90 105 -82 78 7 124 29 154 73 32 46 40 96 41 247 l0 127 50 0
50 0 0 -220 0 -221 88 3 87 3 0 290 0 290 -221 3 c-121 1 -223 -1 -227 -4z"/>
</g>
</svg>
